<!-- Generated by IcoMoon.io -->
<svg version="1.1" xmlns="http://www.w3.org/2000/svg" width="264" height="112" viewBox="0 0 264 112">
<title>Icon-diagram</title>
<path fill="#f4f4fd" d="M4 0h256c2.209 0 4 1.791 4 4v104c0 2.209-1.791 4-4 4h-256c-2.209 0-4-1.791-4-4v-104c0-2.209 1.791-4 4-4z"></path>
<path fill="#4d5ae5" d="M129.851 53.929h2.132v9.595h-2.132v-9.595z"></path>
<path fill="#4d5ae5" d="M138.38 58.194h2.132v5.331h-2.132v-5.331z"></path>
<path fill="#4d5ae5" d="M121.322 61.392h2.132v2.132h-2.132v-2.132z"></path>
<path fill="#4d5ae5" d="M114.926 60.326h2.132v3.198h-2.132v-3.198z"></path>
<path fill="#2e2f42" d="M103.198 80.582h51.174c1.766 0 3.198-1.432 3.198-3.198v-4.264c0-1.766-1.432-3.198-3.198-3.198h-1.067v-26.587l6.056-5.737c1.406 0.693 3.107 0.272 4.027-0.997s0.791-3.017-0.305-4.137c-1.097-1.12-2.841-1.287-4.13-0.396s-1.747 2.584-1.085 4.004l-4.563 4.325v-2.46c0-1.766-1.432-3.198-3.198-3.198h-42.644c-1.767 0-3.199 1.432-3.199 3.198v31.983h-1.066c-1.766 0-3.198 1.432-3.198 3.198v4.264c0 1.766 1.432 3.198 3.198 3.198zM160.768 33.673c0.589 0 1.066 0.477 1.066 1.066s-0.477 1.066-1.066 1.066c-0.589 0-1.066-0.477-1.066-1.066s0.477-1.066 1.066-1.066zM106.397 37.938c0-0.589 0.477-1.066 1.066-1.066h42.644c0.589 0 1.066 0.477 1.066 1.066v4.477l-2.132 2.026v-4.371c0-0.589-0.477-1.066-1.066-1.066h-38.38c-0.589 0-1.066 0.477-1.066 1.066v26.653c0 0.589 0.477 1.066 1.066 1.066h38.38c0.589 0 1.066-0.477 1.066-1.066v-19.349l2.132-2.020v24.567h-44.776v-31.983zM115.992 51.797c-1.443-0.004-2.709 0.957-3.093 2.347s0.21 2.865 1.451 3.601c1.24 0.736 2.82 0.551 3.856-0.452l3.706 1.859c0.43 0.215 0.953 0.115 1.273-0.245l7.877-8.863 7.744 5.803c0.416 0.311 0.996 0.278 1.372-0.079l6.731-6.375v16.262h-36.248v-24.52h36.248v5.321l-7.543 7.143-7.809-5.854c-0.444-0.332-1.068-0.27-1.436 0.144l-7.986 8.985-2.986-1.493c0.022-0.128 0.036-0.257 0.041-0.387 0-1.766-1.432-3.198-3.198-3.198zM117.058 54.995c0 0.589-0.478 1.066-1.066 1.066s-1.066-0.477-1.066-1.066 0.477-1.066 1.066-1.066c0.588 0 1.066 0.477 1.066 1.066zM123.454 72.053h10.661v1.066c0 0.589-0.477 1.066-1.066 1.066h-8.529c-0.588 0-1.066-0.477-1.066-1.066v-1.066zM102.132 73.119c0-0.589 0.478-1.066 1.066-1.066h18.124v1.066c0 1.766 1.432 3.198 3.198 3.198h8.529c1.767 0 3.199-1.432 3.199-3.198v-1.066h18.124c0.588 0 1.066 0.477 1.066 1.066v4.264c0 0.589-0.478 1.066-1.066 1.066h-51.174c-0.588 0-1.066-0.477-1.066-1.066v-4.264z"></path>
</svg>
