<!-- Generated by IcoMoon.io -->
<svg version="1.1" xmlns="http://www.w3.org/2000/svg" width="264" height="112" viewBox="0 0 264 112">
<title>Icon-astronaut</title>
<path fill="#f4f4fd" d="M4 0h256c2.209 0 4 1.791 4 4v104c0 2.209-1.791 4-4 4h-256c-2.209 0-4-1.791-4-4v-104c0-2.209 1.791-4 4-4z"></path>
<path fill="#4d5ae5" d="M163.948 33.048c-0.126-0.385-0.459-0.667-0.861-0.725l-3.82-0.556-1.71-3.462c-0.359-0.73-1.555-0.73-1.913 0l-1.71 3.462-3.821 0.556c-0.402 0.059-0.735 0.339-0.862 0.725-0.124 0.386-0.021 0.811 0.27 1.093l2.766 2.696-0.653 3.806c-0.068 0.4 0.096 0.804 0.424 1.043 0.332 0.241 0.765 0.271 1.124 0.081l3.418-1.797 3.418 1.797c0.155 0.082 0.327 0.123 0.497 0.123 0.22 0 0.441-0.068 0.627-0.204 0.328-0.239 0.493-0.643 0.423-1.043l-0.652-3.806 2.766-2.696c0.289-0.284 0.394-0.707 0.269-1.093zM159.022 35.702c-0.25 0.244-0.366 0.598-0.306 0.944l0.382 2.228-2.001-1.052c-0.156-0.082-0.326-0.123-0.497-0.123s-0.34 0.040-0.497 0.123l-2.001 1.052 0.381-2.228c0.060-0.346-0.055-0.699-0.306-0.944l-1.62-1.579 2.238-0.325c0.348-0.050 0.647-0.269 0.803-0.584l1.001-2.027 1 2.027c0.156 0.315 0.456 0.533 0.803 0.584l2.238 0.325-1.618 1.579z"></path>
<path fill="#4d5ae5" d="M152.267 65.044h-2.133v2.133h2.133v-2.133z"></path>
<path fill="#4d5ae5" d="M152.267 69.311h-2.133v2.133h2.133v-2.133z"></path>
<path fill="#4d5ae5" d="M154.4 67.178h-2.133v2.133h2.133v-2.133z"></path>
<path fill="#4d5ae5" d="M150.134 67.178h-2.134v2.133h2.134v-2.133z"></path>
<path fill="#4d5ae5" d="M144.8 76.778h-2.133v2.133h2.133v-2.133z"></path>
<path fill="#4d5ae5" d="M144.8 81.045h-2.133v2.133h2.133v-2.133z"></path>
<path fill="#4d5ae5" d="M146.934 78.911h-2.134v2.133h2.134v-2.133z"></path>
<path fill="#4d5ae5" d="M142.667 78.911h-2.134v2.133h2.134v-2.133z"></path>
<path fill="#4d5ae5" d="M132 72.511h-2.133v2.133h2.133v-2.133z"></path>
<path fill="#4d5ae5" d="M132 76.778h-2.133v2.133h2.133v-2.133z"></path>
<path fill="#4d5ae5" d="M134.133 74.645h-2.133v2.133h2.133v-2.133z"></path>
<path fill="#4d5ae5" d="M129.867 74.645h-2.134v2.133h2.134v-2.133z"></path>
<path fill="#4d5ae5" d="M111.733 36.244h-2.133v2.133h2.133v-2.133z"></path>
<path fill="#4d5ae5" d="M111.733 40.511h-2.133v2.133h2.133v-2.133z"></path>
<path fill="#4d5ae5" d="M113.866 38.377h-2.133v2.133h2.133v-2.133z"></path>
<path fill="#4d5ae5" d="M109.6 38.377h-2.134v2.133h2.134v-2.133z"></path>
<path fill="#2e2f42" d="M149.43 52.319c-0.575-0.775-1.419-1.275-2.377-1.409-0.962-0.136-1.912 0.116-2.68 0.704l-2.504 1.92-3.796 2.834-2.715-1.082c4.842-2.173 8.227-7.017 8.227-12.64 0-7.646-6.245-13.867-13.922-13.867s-13.923 6.221-13.923 13.867c0 2.771 0.829 5.348 2.241 7.517l-5.528-0.048c-0.003 0-0.006 0-0.010 0-0.017 0-0.031 0.009-0.047 0.010-0.105 0.004-0.209 0.026-0.31 0.062-0.026 0.010-0.052 0.015-0.077 0.027-0.012 0.005-0.025 0.006-0.038 0.013l-6.466 3.193c-0.001 0-0.002 0-0.002 0.001l-3.787 1.821c-0.042 0.018-0.085 0.043-0.126 0.070-1.51 1.005-2.024 2.978-1.197 4.591 0.441 0.858 1.19 1.489 2.112 1.778 0.355 0.111 0.718 0.165 1.079 0.165 0.579 0 1.153-0.142 1.678-0.422l2.776-1.476 4.528-2.338 2.714-0.016-10.884 10.831c-0.001 0.001-0.002 0.001-0.003 0.002l-2.677 2.667c-0.633 0.629-0.981 1.465-0.981 2.355 0 0.89 0.348 1.727 0.981 2.357 0.649 0.646 1.504 0.971 2.358 0.971 0.856 0 1.709-0.324 2.361-0.971l2.628-2.618 3.482-2.6 1.801 1.794-3.523 3.508c-0.001 0.001-0.002 0.001-0.003 0.002l-2.678 2.667c-0.632 0.629-0.98 1.465-0.98 2.355 0 0.89 0.348 1.727 0.98 2.357 0.65 0.646 1.505 0.971 2.36 0.971s1.71-0.324 2.36-0.971l6.964-6.933c0.001-0.001 0.001-0.002 0.002-0.003l2.019-2-0.008-0.008c0.013-0.013 0.031-0.017 0.044-0.031l10.332-11.316 6.942 0.988c0.050 0.008 0.1 0.011 0.15 0.011 0.13 0 0.254-0.031 0.375-0.077 0.035-0.013 0.066-0.030 0.099-0.047 0.038-0.019 0.079-0.030 0.115-0.054l6.427-4.267c0.024-0.016 0.036-0.042 0.059-0.059 0.025-0.020 0.057-0.029 0.081-0.051l2.543-2.382c1.323-1.24 1.505-3.271 0.424-4.723zM104.261 59.54c-0.347 0.186-0.74 0.223-1.117 0.103-0.373-0.116-0.676-0.371-0.853-0.716-0.322-0.627-0.136-1.391 0.428-1.804l2.628-1.264 0.632 1.849 0.266 0.776-1.984 1.055zM111.255 55.885l-3.097 1.6-0.51-1.493-0.367-1.073 4.053-2.001-0.079 2.968zM141.454 42.644c0 1.837-0.439 3.569-1.198 5.119l-8.363-3.798c-0.087-1.147-0.682-2.15-1.576-2.776l2.928-9.721c4.755 1.513 8.209 5.949 8.209 11.176zM117.876 42.644c0-6.469 5.289-11.734 11.789-11.734 0.506 0 1 0.043 1.49 0.104l-2.864 9.507c-0.038-0.001-0.075-0.012-0.114-0.012-2.065 0-3.745 1.675-3.745 3.734s1.68 3.733 3.745 3.733c1.389 0 2.589-0.767 3.236-1.889l7.725 3.51c-2.149 2.893-5.589 4.78-9.473 4.78-6.5 0-11.789-5.264-11.789-11.734zM129.789 44.244c0 0.882-0.724 1.6-1.612 1.6s-1.612-0.718-1.612-1.6 0.723-1.6 1.612-1.6c0.888 0 1.612 0.718 1.612 1.6zM104.93 74.293c-0.473 0.468-1.238 0.467-1.709 0.001-0.227-0.227-0.352-0.527-0.352-0.846 0-0.318 0.125-0.618 0.352-0.843l1.924-1.917 1.702 1.695-1.917 1.909zM111.357 81.759c-0.472 0.468-1.238 0.469-1.709 0.001-0.228-0.227-0.353-0.527-0.353-0.846 0-0.318 0.125-0.618 0.353-0.843l1.925-1.918 1.703 1.695-1.919 1.91zM118.321 74.822c-0.001 0.001-0.002 0.001-0.003 0.002l-3.53 3.52-1.704-1.695 3.527-3.51c0 0 0 0 0-0.001s0.002-0.001 0.003-0.002c0.080-0.080 0.13-0.176 0.179-0.271 0.014-0.028 0.041-0.051 0.052-0.080 0.034-0.082 0.039-0.171 0.052-0.257 0.006-0.049 0.027-0.095 0.027-0.145 0-0.072-0.025-0.141-0.040-0.211-0.013-0.064-0.013-0.129-0.037-0.191-0.041-0.1-0.11-0.189-0.183-0.275-0.020-0.024-0.028-0.053-0.050-0.076 0 0 0 0-0.001 0s-0.001-0.003-0.002-0.004l-3.214-3.2c-0.034-0.034-0.078-0.048-0.116-0.077-0.057-0.044-0.111-0.084-0.174-0.115-0.061-0.030-0.123-0.048-0.187-0.065-0.068-0.019-0.134-0.034-0.206-0.039-0.065-0.004-0.126 0.002-0.191 0.010-0.071 0.009-0.138 0.018-0.208 0.040-0.067 0.021-0.126 0.054-0.188 0.090-0.040 0.022-0.085 0.030-0.122 0.058l-3.547 2.648-1.801-1.794 4.798-4.772 8.721 8.577-1.855 1.838zM131.958 60.788c-0.031-0.004-0.059 0.008-0.090 0.005-0.078-0.004-0.153 0.001-0.231 0.014-0.060 0.011-0.118 0.022-0.176 0.043-0.068 0.024-0.13 0.055-0.193 0.094-0.060 0.036-0.114 0.075-0.166 0.123-0.026 0.022-0.057 0.033-0.080 0.059l-9.397 10.291-8.656-8.513 5.666-5.636c0.418-0.416 0.42-1.091 0.004-1.509-0.21-0.21-0.487-0.314-0.763-0.312v-0.001l-4.437 0.027 0.055-3.215 6.208 0.053c2.53 2.588 6.059 4.202 9.963 4.202 0.875 0 1.728-0.091 2.559-0.245 0.080 0.064 0.159 0.129 0.259 0.17l4.819 1.92 0.305 1.517 0.357 1.771-6.006-0.854zM140.041 61.145l-0.627-3.116 2.893-2.16 0.758 1.005 1.136 1.508-4.16 2.763zM147.548 55.483l-1.676 1.57-1.862-2.473 1.663-1.275c0.31-0.239 0.701-0.336 1.085-0.286 0.387 0.054 0.728 0.256 0.96 0.569 0.434 0.584 0.36 1.397-0.17 1.894z"></path>
<path fill="#2e2f42" d="M127.204 61.088l-4.286-4.267c-0.415-0.415-1.089-0.415-1.505 0l-4.285 4.267c-0.2 0.202-0.313 0.473-0.313 0.756s0.112 0.556 0.313 0.756l4.285 4.267c0.208 0.207 0.481 0.31 0.753 0.31s0.545-0.103 0.752-0.31l4.286-4.267c0.201-0.2 0.315-0.473 0.315-0.756s-0.113-0.556-0.315-0.756zM122.166 64.606l-2.773-2.762 2.773-2.762 2.775 2.762-2.775 2.762z"></path>
<path fill="#2e2f42" d="M134.328 34.142l-0.515 2.072c0.142 0.035 3.476 0.904 3.476 4.298h2.133c0-4.034-3.331-5.931-5.094-6.369z"></path>
<path fill="#2e2f42" d="M139.422 42.644h-2.133v2.133h2.133v-2.133z"></path>
</svg>
